<svg id="visual" viewBox="0 0 900 600" width="900" height="600" xmlns="http://www.w3.org/2000/svg" xmlns:xlink="http://www.w3.org/1999/xlink" version="1.1"><rect x="0" y="0" width="900" height="600" fill="#001220"></rect><defs><linearGradient id="grad1_0" x1="33.3%" y1="0%" x2="100%" y2="100%"><stop offset="20%" stop-color="#001220" stop-opacity="1"></stop><stop offset="80%" stop-color="#001220" stop-opacity="1"></stop></linearGradient></defs><defs><linearGradient id="grad2_0" x1="0%" y1="0%" x2="66.7%" y2="100%"><stop offset="20%" stop-color="#001220" stop-opacity="1"></stop><stop offset="80%" stop-color="#001220" stop-opacity="1"></stop></linearGradient></defs><g transform="translate(900, 0)"><path d="M0 540.8C-16.6 502.7 -33.2 464.6 -57.3 471.5C-81.3 478.5 -112.7 530.6 -128.3 520.4C-143.8 510.3 -143.4 437.8 -157.1 414.2C-170.7 390.6 -198.4 415.8 -222.6 424.1C-246.8 432.5 -267.4 424.1 -286.9 415.6C-306.3 407.1 -324.5 398.6 -346.8 391.5C-369.1 384.4 -395.6 378.7 -404.8 358.6C-414 338.6 -406 304.1 -399.1 275.5C-392.3 247 -386.5 224.4 -400.2 210.1C-414 195.7 -447.2 189.6 -461 174.8C-474.7 160 -469 136.4 -471.9 116.3C-474.8 96.2 -486.4 79.4 -499.3 60.6C-512.3 41.8 -526.6 20.9 -540.8 0L0 0Z" fill="#FBAE3C"></path></g><g transform="translate(0, 600)"><path d="M0 -540.8C24.1 -550.9 48.1 -561 65.2 -536.9C82.2 -512.8 92.3 -454.5 104.6 -424.3C116.9 -394.1 131.4 -391.9 149.3 -393.6C167.2 -395.4 188.4 -401 213.3 -406.4C238.3 -411.8 267 -416.9 273.2 -395.9C279.5 -374.8 263.3 -327.6 285.1 -321.9C307 -316.1 366.8 -351.8 403.4 -357.4C440.1 -363 453.6 -338.4 439.5 -303.3C425.4 -268.2 383.7 -222.6 379.9 -199.4C376 -176.1 410 -175.3 435.7 -165.2C461.5 -155.2 479.1 -135.9 464.1 -114.4C449.1 -92.9 401.6 -69.1 409 -49.7C416.4 -30.2 478.6 -15.1 540.8 0L0 0Z" fill="#FBAE3C"></path></g></svg>